<svg xmlns="http://www.w3.org/2000/svg" width="934" height="1123" viewBox="0 0 934 1123">
<g>
<path d="M 453.50 1122.00 C453.91,1122.66 535.18,1123.00 694.06,1123.00 L 0.00 1123.00 L 0.00 0.00 L 715.47 0.00 C522.14,0.00 496.87,0.17 496.36,1.50 C496.05,2.33 494.89,3.00 493.79,3.00 C492.60,3.00 491.98,3.51 492.26,4.25 C494.52,10.29 493.97,11.36 488.67,11.21 C487.00,11.16 484.72,11.61 483.61,12.21 C481.59,13.29 481.59,13.31 483.79,14.12 C485.24,14.65 486.00,15.77 486.00,17.37 C486.00,19.42 485.55,19.77 483.05,19.65 C481.42,19.57 480.18,19.95 480.30,20.50 C480.41,21.05 481.48,21.48 482.68,21.47 C483.87,21.45 484.63,21.79 484.37,22.22 C484.10,22.65 484.58,23.00 485.44,23.00 C486.30,23.00 487.00,23.47 487.00,24.04 C487.00,24.74 486.37,24.73 485.02,24.01 C482.94,22.90 477.68,23.67 478.48,24.97 C478.74,25.39 475.93,26.00 472.23,26.33 C451.51,28.17 438.16,31.11 425.70,36.58 C374.93,58.86 348.02,117.00 363.61,170.78 C370.48,194.49 385.26,216.02 404.47,230.28 C417.93,240.27 436.54,248.42 451.75,250.97 C455.74,251.63 459.00,252.62 459.00,253.15 C459.00,253.68 459.56,253.78 460.25,253.37 C461.10,252.86 461.06,253.16 460.13,254.31 C459.37,255.24 459.16,256.00 459.66,256.00 C460.17,256.00 460.65,256.97 460.74,258.15 C461.00,261.68 462.58,262.42 464.90,260.10 C466.05,258.95 467.42,258.00 467.93,258.00 C468.44,258.00 469.56,257.29 470.43,256.43 C471.85,255.01 472.00,255.01 472.00,256.42 C472.00,257.28 471.10,258.55 470.00,259.23 C467.74,260.64 467.38,261.99 469.25,262.03 C469.94,262.04 471.81,263.39 473.42,265.03 C475.02,266.66 476.93,268.00 477.67,268.00 C479.50,268.00 479.34,269.30 477.22,271.52 C474.73,274.14 475.39,279.97 478.10,279.26 C480.73,278.58 480.59,281.47 477.90,283.36 L 475.80 284.83 L 478.40 286.53 C481.72,288.70 481.78,291.00 478.52,291.00 C476.73,291.00 475.87,290.33 475.43,288.59 C475.10,287.27 473.97,285.96 472.92,285.69 C470.15,284.96 470.49,287.62 473.40,289.53 C476.66,291.66 477.71,296.01 475.38,297.71 C474.41,298.42 473.98,299.00 474.43,299.00 C474.88,299.00 474.68,299.67 474.00,300.50 C473.32,301.33 471.91,302.00 470.88,302.00 C468.37,302.00 468.47,304.70 471.00,305.50 C472.10,305.85 473.00,306.61 473.00,307.19 C473.00,309.08 468.51,305.35 468.19,303.19 C468.00,301.93 469.08,299.85 470.94,297.91 C472.62,296.15 474.00,295.30 474.00,296.02 C474.00,296.74 474.26,297.08 474.57,296.76 C474.89,296.44 474.41,294.77 473.52,293.03 C471.75,289.61 468.51,289.18 468.49,292.36 C468.49,293.37 467.52,294.97 466.33,295.93 C464.84,297.14 464.45,298.11 465.08,299.09 C466.38,301.14 466.20,305.40 464.75,306.87 C463.75,307.88 463.82,308.37 465.10,309.32 C465.99,309.97 467.01,311.46 467.38,312.61 C468.01,314.62 467.63,314.75 459.27,315.26 C439.97,316.44 417.67,327.01 403.20,341.84 C388.03,357.39 379.32,376.27 377.10,398.42 C375.63,413.01 375.56,712.93 377.02,725.03 C379.81,748.15 392.37,771.32 409.69,785.32 C418.89,792.75 435.11,801.29 445.48,804.15 C450.36,805.50 453.99,807.03 453.99,807.75 C454.00,808.44 454.38,809.00 454.83,809.00 C455.29,809.00 455.67,809.59 455.67,810.32 C455.67,811.04 456.70,813.03 457.97,814.74 C460.57,818.27 460.17,820.69 456.90,821.17 C453.65,821.65 453.60,824.88 456.83,826.22 C458.30,826.83 459.87,827.24 460.33,827.14 C460.78,827.03 460.86,827.86 460.51,828.98 C459.93,830.81 460.12,830.91 462.50,830.00 C462.65,829.94 462.79,829.89 462.92,829.84 C464.52,829.23 465.20,828.97 465.58,829.20 C465.90,829.40 466.01,829.93 466.26,830.90 C466.65,832.37 466.10,832.93 463.82,833.39 C459.87,834.18 457.70,836.48 458.51,839.04 C458.87,840.17 458.65,841.72 458.01,842.48 C457.20,843.47 457.16,844.44 457.90,845.80 C458.46,846.87 458.61,848.09 458.21,848.53 C457.82,848.96 458.30,849.03 459.28,848.68 C460.80,848.13 461.00,848.54 460.70,851.52 C460.50,853.43 459.97,855.33 459.51,855.75 C459.05,856.16 459.01,855.93 459.40,855.24 C459.83,854.51 459.47,853.73 458.55,853.38 C457.68,853.05 457.03,852.26 457.10,851.64 C457.41,849.10 456.92,848.00 455.50,848.00 C454.67,848.00 454.00,848.67 454.00,849.50 C454.00,850.33 454.34,851.00 454.76,851.00 C455.17,851.00 455.98,852.49 456.55,854.32 C457.47,857.27 457.33,857.83 455.23,859.41 C453.12,861.00 453.03,861.37 454.34,862.85 C455.60,864.27 455.61,864.68 454.41,865.79 C453.63,866.50 453.00,866.81 453.00,866.49 C453.00,866.16 451.93,867.05 450.63,868.46 C447.16,872.20 446.29,881.20 448.85,886.92 C450.64,890.92 450.72,895.00 449.01,895.00 C447.75,895.00 446.83,903.23 447.96,904.36 C448.68,905.08 449.00,905.07 449.00,904.32 C449.00,902.68 452.79,902.02 453.38,903.55 C453.71,904.41 452.95,904.99 451.20,905.19 C449.69,905.36 448.44,906.16 448.37,907.00 C448.29,907.83 448.18,909.09 448.12,909.82 C448.04,910.67 447.29,910.91 446.00,910.50 C443.70,909.77 443.24,911.49 445.50,912.36 C447.21,913.02 447.54,915.00 445.94,915.00 C445.36,915.00 445.13,914.60 445.43,914.11 C445.74,913.61 444.87,913.28 443.49,913.36 C442.12,913.44 440.99,913.95 440.99,914.50 C440.94,917.24 439.34,918.11 436.63,916.88 C434.70,916.00 434.31,915.43 435.22,914.85 C435.92,914.42 434.70,914.31 432.50,914.61 C429.37,915.05 428.83,914.92 430.00,914.02 C431.19,913.11 430.89,913.00 428.50,913.45 C422.89,914.52 414.52,914.17 407.00,912.55 C357.67,901.95 313.73,881.01 275.00,849.64 C264.66,841.27 244.41,821.42 234.55,810.00 C194.66,763.81 168.77,706.69 158.85,643.00 C156.83,630.06 156.59,624.89 156.60,595.00 C156.61,565.49 156.88,559.83 158.81,547.50 C169.58,478.65 196.09,422.55 241.95,371.50 C250.63,361.84 258.25,347.35 260.62,336.00 C265.36,313.32 257.64,288.52 240.82,272.39 C232.87,264.77 227.67,261.49 217.53,257.70 C210.30,255.00 208.31,254.70 197.50,254.65 C183.54,254.59 177.76,255.97 165.50,262.33 C156.14,267.17 146.78,275.68 131.06,293.61 C98.96,330.20 71.77,375.47 52.73,424.00 C36.16,466.23 26.69,506.53 21.85,555.50 C20.22,571.97 20.22,622.58 21.85,638.49 C31.67,734.48 64.26,815.88 121.55,887.50 C176.54,956.24 250.64,1007.61 336.48,1036.51 C361.11,1044.80 396.49,1053.23 418.50,1056.06 C423.60,1056.71 428.24,1057.87 429.21,1058.73 C430.25,1059.64 431.85,1060.00 433.28,1059.65 C434.58,1059.32 436.49,1059.65 437.57,1060.40 C439.24,1061.57 448.54,1063.21 447.48,1062.15 C447.07,1061.74 449.53,1059.00 450.31,1059.00 C450.56,1059.00 451.00,1059.90 451.29,1061.00 C451.62,1062.28 452.66,1063.01 454.16,1063.02 C455.64,1063.03 456.06,1063.31 455.29,1063.80 C453.84,1064.72 457.87,1069.96 460.12,1070.07 C460.96,1070.11 460.79,1070.42 459.69,1070.86 C457.97,1071.53 457.99,1071.71 459.99,1074.26 C461.76,1076.52 461.95,1077.51 461.16,1080.38 C460.53,1082.68 460.56,1084.16 461.26,1084.86 C462.52,1086.12 460.52,1089.00 458.38,1089.00 C457.62,1089.00 457.00,1089.47 457.00,1090.05 C457.00,1090.62 455.87,1092.14 454.48,1093.43 C452.06,1095.67 452.05,1095.78 453.98,1096.29 C456.20,1096.86 456.78,1100.82 454.92,1102.68 C454.14,1103.46 454.20,1104.34 455.11,1105.81 C456.10,1107.39 456.13,1108.43 455.23,1110.39 C454.13,1112.81 454.18,1112.88 456.54,1111.98 C457.89,1111.47 459.00,1111.29 459.00,1111.57 C459.00,1111.86 459.75,1111.68 460.67,1111.17 C462.92,1109.91 464.77,1111.76 464.21,1114.70 C463.84,1116.61 464.19,1117.00 466.30,1117.00 C467.70,1117.00 469.62,1117.30 470.57,1117.66 C472.98,1118.59 463.94,1120.90 457.69,1120.96 C454.75,1120.98 453.12,1121.39 453.50,1122.00 ZM 452.73 917.08 C452.82,918.30 452.24,919.00 451.13,919.00 C449.19,919.00 444.91,916.15 446.50,915.92 C452.03,915.11 452.59,915.21 452.73,917.08 ZM 483.43 265.33 C483.07,266.25 481.93,267.00 480.89,267.00 C478.70,267.00 478.55,266.17 480.34,263.82 C481.90,261.78 484.33,262.97 483.43,265.33 ZM 454.00 1076.20 C454.00,1078.10 455.49,1078.64 456.45,1077.08 C456.76,1076.57 456.36,1075.50 455.56,1074.70 C454.75,1073.90 454.30,1073.03 454.55,1072.79 C454.80,1072.54 454.31,1072.33 453.47,1072.33 C452.41,1072.33 452.26,1072.66 452.97,1073.37 C453.54,1073.94 454.00,1075.21 454.00,1076.20 ZM 465.00 848.44 C465.00,850.38 462.42,849.86 462.27,847.89 C462.18,846.73 462.63,846.30 463.57,846.66 C464.35,846.97 465.00,847.77 465.00,848.44 ZM 467.00 257.50 C467.00,257.65 465.92,257.97 464.59,258.23 C462.96,258.54 462.34,258.29 462.66,257.45 C463.04,256.47 467.00,256.51 467.00,257.50 ZM 465.00 1104.00 C465.00,1104.55 464.33,1105.00 463.50,1105.00 C462.67,1105.00 462.00,1104.55 462.00,1104.00 C462.00,1103.45 462.67,1103.00 463.50,1103.00 C464.33,1103.00 465.00,1103.45 465.00,1104.00 ZM 452.50 878.00 C452.16,878.55 451.49,879.00 451.00,879.00 C450.51,879.00 449.84,878.55 449.50,878.00 C449.16,877.45 449.84,877.00 451.00,877.00 C452.16,877.00 452.84,877.45 452.50,878.00 ZM 469.37 256.21 C469.10,256.65 468.80,256.97 468.69,256.93 C468.59,256.89 467.60,256.47 466.50,256.00 C464.75,255.24 464.84,255.15 467.18,255.28 C468.65,255.36 469.64,255.78 469.37,256.21 Z" fill="rgb(250,90,15)"/>
<path d="M 453.50 1122.00 C453.12,1121.39 454.75,1120.98 457.69,1120.96 C463.94,1120.90 472.98,1118.59 470.57,1117.66 C469.62,1117.30 467.70,1117.00 466.30,1117.00 C464.19,1117.00 463.84,1116.61 464.21,1114.70 C464.77,1111.76 462.92,1109.91 460.67,1111.17 C459.75,1111.68 459.00,1111.86 459.00,1111.57 C459.00,1111.29 457.89,1111.47 456.54,1111.98 C454.18,1112.88 454.13,1112.81 455.23,1110.39 C456.13,1108.43 456.10,1107.39 455.11,1105.81 C454.20,1104.34 454.14,1103.46 454.92,1102.68 C456.78,1100.82 456.20,1096.86 453.98,1096.29 C452.05,1095.78 452.06,1095.67 454.48,1093.43 C455.87,1092.14 457.00,1090.62 457.00,1090.05 C457.00,1089.47 457.62,1089.00 458.38,1089.00 C460.52,1089.00 462.52,1086.12 461.26,1084.86 C460.56,1084.16 460.53,1082.68 461.16,1080.38 C461.95,1077.51 461.76,1076.52 459.99,1074.26 C457.99,1071.71 457.97,1071.53 459.69,1070.86 C460.79,1070.42 460.96,1070.11 460.12,1070.07 C457.87,1069.96 453.84,1064.72 455.29,1063.80 C456.06,1063.31 455.64,1063.03 454.16,1063.02 C452.66,1063.01 451.62,1062.28 451.29,1061.00 C451.00,1059.90 450.56,1059.00 450.31,1059.00 C449.53,1059.00 447.07,1061.74 447.48,1062.15 C448.54,1063.21 439.24,1061.57 437.57,1060.40 C436.49,1059.65 434.58,1059.32 433.28,1059.65 C431.85,1060.00 430.25,1059.64 429.21,1058.73 C428.24,1057.87 423.60,1056.71 418.50,1056.06 C412.47,1055.28 405.43,1054.09 397.88,1052.59 C409.88,1054.85 421.59,1056.49 432.75,1057.47 C451.37,1059.09 485.14,1059.32 503.44,1057.95 C527.92,1056.11 557.64,1050.74 584.00,1043.37 C698.95,1011.25 796.51,934.47 856.41,829.00 C888.67,772.20 908.08,709.95 915.17,640.50 C916.81,624.40 916.82,568.94 915.18,553.00 C907.42,477.55 885.51,411.08 847.35,347.26 C827.77,314.50 794.86,274.66 778.69,264.12 C747.39,243.73 704.13,256.16 686.74,290.54 C679.88,304.09 677.48,321.37 680.42,335.91 C683.61,351.63 688.23,360.32 701.50,375.53 C710.38,385.72 724.51,404.79 731.56,416.13 C739.29,428.54 750.51,450.86 755.89,464.50 C785.90,540.61 789.56,616.80 766.85,693.00 C755.32,731.71 736.51,768.16 711.01,801.20 C699.48,816.15 674.28,841.76 660.00,853.05 C622.42,882.75 577.98,903.58 532.18,912.96 C505.71,918.38 478.85,920.21 452.28,918.60 C452.62,918.27 452.78,917.75 452.73,917.08 C452.59,915.21 452.03,915.11 446.50,915.92 C445.39,916.08 447.16,917.53 448.98,918.38 C436.14,917.46 423.37,915.75 410.75,913.25 C417.19,914.25 423.81,914.34 428.50,913.45 C430.89,913.00 431.19,913.11 430.00,914.02 C428.83,914.92 429.37,915.05 432.50,914.61 C434.70,914.31 435.92,914.42 435.22,914.85 C434.31,915.43 434.70,916.00 436.63,916.88 C439.34,918.11 440.94,917.24 440.99,914.50 C440.99,913.95 442.12,913.44 443.49,913.36 C444.87,913.28 445.74,913.61 445.43,914.11 C445.13,914.60 445.36,915.00 445.94,915.00 C447.54,915.00 447.21,913.02 445.50,912.36 C443.24,911.49 443.70,909.77 446.00,910.50 C447.29,910.91 448.04,910.67 448.12,909.82 C448.18,909.09 448.29,907.83 448.37,907.00 C448.44,906.16 449.69,905.36 451.20,905.19 C452.95,904.99 453.71,904.41 453.38,903.55 C452.79,902.02 449.00,902.68 449.00,904.32 C449.00,905.07 448.68,905.08 447.96,904.36 C446.83,903.23 447.75,895.00 449.01,895.00 C450.72,895.00 450.64,890.92 448.85,886.92 C446.29,881.20 447.16,872.20 450.63,868.46 C451.93,867.05 453.00,866.16 453.00,866.49 C453.00,866.81 453.63,866.50 454.41,865.79 C455.61,864.68 455.60,864.27 454.34,862.85 C453.03,861.37 453.12,861.00 455.23,859.41 C457.33,857.83 457.47,857.27 456.55,854.32 C455.98,852.49 455.17,851.00 454.76,851.00 C454.34,851.00 454.00,850.33 454.00,849.50 C454.00,848.67 454.67,848.00 455.50,848.00 C456.92,848.00 457.41,849.10 457.10,851.64 C457.03,852.26 457.68,853.05 458.55,853.38 C459.47,853.73 459.83,854.51 459.40,855.24 C459.01,855.93 459.05,856.16 459.51,855.75 C459.97,855.33 460.50,853.43 460.70,851.52 C461.00,848.54 460.80,848.13 459.28,848.68 C458.30,849.03 457.82,848.96 458.21,848.53 C458.61,848.09 458.46,846.87 457.90,845.80 C457.16,844.44 457.20,843.47 458.01,842.48 C458.65,841.72 458.87,840.17 458.51,839.04 C457.70,836.48 459.87,834.18 463.82,833.39 C466.10,832.93 466.65,832.37 466.26,830.90 C466.01,829.93 465.90,829.40 465.58,829.20 C465.20,828.97 464.52,829.23 462.92,829.84 C462.79,829.89 462.65,829.94 462.50,830.00 C460.12,830.91 459.93,830.81 460.51,828.98 C460.86,827.86 460.78,827.03 460.33,827.14 C459.87,827.24 458.30,826.83 456.83,826.22 C453.60,824.88 453.65,821.65 456.90,821.17 C460.17,820.69 460.57,818.27 457.97,814.74 C456.70,813.03 455.67,811.04 455.67,810.32 C455.67,809.59 455.29,809.00 454.83,809.00 C454.38,809.00 454.00,808.44 453.99,807.75 C453.99,807.12 451.21,805.87 447.25,804.66 C449.84,805.25 452.51,805.67 455.50,805.99 C472.21,807.78 489.19,805.70 502.67,800.20 C530.72,788.78 549.71,766.81 558.17,736.00 L 560.50 727.50 L 560.50 560.50 C560.50,549.11 560.50,538.47 560.50,528.53 C560.52,400.28 560.53,388.23 556.58,377.65 C555.86,375.73 555.02,373.86 554.02,371.36 C544.69,347.96 522.57,327.08 498.73,319.18 C488.73,315.86 476.61,314.40 464.98,314.82 C467.77,314.48 467.82,314.00 467.38,312.61 C467.01,311.46 465.99,309.97 465.10,309.32 C463.82,308.37 463.75,307.88 464.75,306.87 C466.20,305.40 466.38,301.14 465.08,299.09 C464.45,298.11 464.84,297.14 466.33,295.93 C467.52,294.97 468.49,293.37 468.49,292.36 C468.51,289.18 471.75,289.61 473.52,293.03 C474.41,294.77 474.89,296.44 474.57,296.76 C474.26,297.08 474.00,296.74 474.00,296.02 C474.00,295.30 472.62,296.15 470.94,297.91 C469.08,299.85 468.00,301.93 468.19,303.19 C468.51,305.35 473.00,309.08 473.00,307.19 C473.00,306.61 472.10,305.85 471.00,305.50 C468.47,304.70 468.37,302.00 470.88,302.00 C471.91,302.00 473.32,301.33 474.00,300.50 C474.68,299.67 474.88,299.00 474.43,299.00 C473.98,299.00 474.41,298.42 475.38,297.71 C477.71,296.01 476.66,291.66 473.40,289.53 C470.49,287.62 470.15,284.96 472.92,285.69 C473.97,285.96 475.10,287.27 475.43,288.59 C475.87,290.33 476.73,291.00 478.52,291.00 C481.78,291.00 481.72,288.70 478.40,286.53 L 475.80 284.83 L 477.90 283.36 C480.59,281.47 480.73,278.58 478.10,279.26 C475.39,279.97 474.73,274.14 477.22,271.52 C479.34,269.30 479.50,268.00 477.67,268.00 C476.93,268.00 475.02,266.66 473.42,265.03 C471.81,263.39 469.94,262.04 469.25,262.03 C467.38,261.99 467.74,260.64 470.00,259.23 C471.10,258.55 472.00,257.28 472.00,256.42 C472.00,255.01 471.85,255.01 470.43,256.43 C469.56,257.29 468.44,258.00 467.93,258.00 C467.42,258.00 466.05,258.95 464.90,260.10 C462.58,262.42 461.00,261.68 460.74,258.15 C460.65,256.97 460.17,256.00 459.66,256.00 C459.16,256.00 459.37,255.24 460.13,254.31 C461.06,253.16 461.10,252.86 460.25,253.37 C459.56,253.78 459.00,253.68 459.00,253.15 C459.00,252.62 455.74,251.63 451.75,250.97 C445.41,249.90 438.48,247.87 431.58,245.13 C442.07,249.17 453.18,251.64 464.50,252.33 C467.25,252.50 469.73,252.71 470.00,252.80 C470.27,252.89 475.01,252.32 480.52,251.54 C506.10,247.90 529.35,236.03 546.50,217.85 C563.37,199.97 574.23,176.13 577.01,150.89 C578.44,137.88 577.55,126.64 573.96,112.27 C563.42,70.17 533.46,39.98 492.07,29.76 C481.17,27.07 465.58,26.79 452.29,28.84 C458.17,27.81 464.72,27.00 472.23,26.33 C475.93,26.00 478.74,25.39 478.48,24.97 C477.68,23.67 482.94,22.90 485.02,24.01 C486.37,24.73 487.00,24.74 487.00,24.04 C487.00,23.47 486.30,23.00 485.44,23.00 C484.58,23.00 484.10,22.65 484.37,22.22 C484.63,21.79 483.87,21.45 482.68,21.47 C481.48,21.48 480.41,21.05 480.30,20.50 C480.18,19.95 481.42,19.57 483.05,19.65 C485.55,19.77 486.00,19.42 486.00,17.37 C486.00,15.77 485.24,14.65 483.79,14.12 C481.59,13.31 481.59,13.29 483.61,12.21 C484.72,11.61 487.00,11.16 488.67,11.21 C493.97,11.36 494.52,10.29 492.26,4.25 C491.98,3.51 492.60,3.00 493.79,3.00 C494.89,3.00 496.05,2.33 496.36,1.50 C496.87,0.17 522.14,0.00 715.47,0.00 L 934.00 0.00 L 934.00 1123.00 L 694.06 1123.00 C535.18,1123.00 453.91,1122.66 453.50,1122.00 ZM 483.43 265.33 C484.33,262.97 481.90,261.78 480.34,263.82 C478.55,266.17 478.70,267.00 480.89,267.00 C481.93,267.00 483.07,266.25 483.43,265.33 ZM 454.00 1076.20 C454.00,1075.21 453.54,1073.94 452.97,1073.37 C452.26,1072.66 452.41,1072.33 453.47,1072.33 C454.31,1072.33 454.80,1072.54 454.55,1072.79 C454.30,1073.03 454.75,1073.90 455.56,1074.70 C456.36,1075.50 456.76,1076.57 456.45,1077.08 C455.49,1078.64 454.00,1078.10 454.00,1076.20 ZM 465.00 848.44 C465.00,847.77 464.35,846.97 463.57,846.66 C462.63,846.30 462.18,846.73 462.27,847.89 C462.42,849.86 465.00,850.38 465.00,848.44 ZM 467.00 257.50 C467.00,256.51 463.04,256.47 462.66,257.45 C462.34,258.29 462.96,258.54 464.59,258.23 C465.92,257.97 467.00,257.65 467.00,257.50 ZM 417.88 791.10 C414.83,789.18 412.03,787.21 409.69,785.32 C403.72,780.49 398.31,774.57 393.67,767.94 C400.15,776.90 408.29,784.73 417.88,791.10 ZM 465.00 1104.00 C465.00,1103.45 464.33,1103.00 463.50,1103.00 C462.67,1103.00 462.00,1103.45 462.00,1104.00 C462.00,1104.55 462.67,1105.00 463.50,1105.00 C464.33,1105.00 465.00,1104.55 465.00,1104.00 ZM 452.50 878.00 C452.84,877.45 452.16,877.00 451.00,877.00 C449.84,877.00 449.16,877.45 449.50,878.00 C449.84,878.55 450.51,879.00 451.00,879.00 C451.49,879.00 452.16,878.55 452.50,878.00 ZM 469.37 256.21 C469.64,255.78 468.65,255.36 467.18,255.28 C464.84,255.15 464.75,255.24 466.50,256.00 C467.60,256.47 468.59,256.89 468.69,256.93 C468.80,256.97 469.10,256.65 469.37,256.21 ZM 442.84 30.80 C428.78,34.48 416.07,40.47 404.97,48.56 C411.33,43.88 418.26,39.84 425.70,36.58 C431.07,34.22 436.61,32.33 442.84,30.80 ZM 394.38 221.74 C399.87,226.93 405.88,231.55 412.30,235.54 C409.55,233.86 406.93,232.10 404.47,230.28 C400.95,227.67 397.58,224.81 394.38,221.74 ZM 441.83 318.58 C427.20,323.28 414.56,330.82 404.42,340.63 C414.54,330.71 428.14,322.82 441.83,318.58 ZM 386.59 364.96 C381.56,375.07 378.31,386.32 377.10,398.42 C378.32,386.28 381.48,375.12 386.59,364.96 ZM 345.99 1039.56 C342.69,1038.55 339.50,1037.53 336.48,1036.51 C329.17,1034.05 321.95,1031.43 314.82,1028.64 C325.07,1032.63 335.51,1036.28 345.99,1039.56 ZM 379.04 75.51 C377.89,77.21 376.77,78.96 375.70,80.74 C371.61,87.53 368.28,94.60 365.71,101.84 C369.00,92.52 373.48,83.66 379.04,75.51 ZM 359.25 143.26 C359.59,153.35 361.28,163.41 364.34,173.19 C364.09,172.39 363.84,171.58 363.61,170.78 C360.97,161.66 359.55,152.43 359.25,143.26 ZM 455.48 315.60 C453.18,315.91 450.94,316.29 448.76,316.75 C451.02,316.26 453.27,315.87 455.48,315.60 Z" fill="rgb(250,63,40)"/>
<path d="M 432.75 1057.47 C393.19,1054.02 346.82,1042.11 304.73,1024.58 C232.17,994.36 169.57,947.52 121.55,887.50 C64.26,815.88 31.67,734.48 21.85,638.49 C20.22,622.58 20.22,571.97 21.85,555.50 C26.69,506.53 36.16,466.23 52.73,424.00 C71.77,375.47 98.96,330.20 131.06,293.61 C146.78,275.68 156.14,267.17 165.50,262.33 C177.76,255.97 183.54,254.59 197.50,254.65 C208.31,254.70 210.30,255.00 217.53,257.70 C227.67,261.49 232.87,264.77 240.82,272.39 C257.64,288.52 265.36,313.32 260.62,336.00 C258.25,347.35 250.63,361.84 241.95,371.50 C196.09,422.55 169.58,478.65 158.81,547.50 C156.88,559.83 156.61,565.49 156.60,595.00 C156.59,624.89 156.83,630.06 158.85,643.00 C168.77,706.69 194.66,763.81 234.55,810.00 C244.41,821.42 264.66,841.27 275.00,849.64 C347.20,908.11 441.97,931.44 532.18,912.96 C577.98,903.58 622.42,882.75 660.00,853.05 C674.28,841.76 699.48,816.15 711.01,801.20 C736.51,768.16 755.32,731.71 766.85,693.00 C789.56,616.80 785.90,540.61 755.89,464.50 C750.51,450.86 739.29,428.54 731.56,416.13 C724.51,404.79 710.38,385.72 701.50,375.53 C688.23,360.32 683.61,351.63 680.42,335.91 C677.48,321.37 679.88,304.09 686.74,290.54 C704.13,256.16 747.39,243.73 778.69,264.12 C794.86,274.66 827.77,314.50 847.35,347.26 C885.51,411.08 907.42,477.55 915.18,553.00 C916.82,568.94 916.81,624.40 915.17,640.50 C908.08,709.95 888.67,772.20 856.41,829.00 C796.51,934.47 698.95,1011.25 584.00,1043.37 C557.64,1050.74 527.92,1056.11 503.44,1057.95 C485.14,1059.32 451.37,1059.09 432.75,1057.47 ZM 455.50 805.99 C445.48,804.91 439.03,802.77 427.07,796.53 C398.93,781.85 380.74,755.87 377.02,725.03 C375.56,712.93 375.63,413.01 377.10,398.42 C380.95,360.09 405.17,330.28 442.00,318.52 C458.49,313.26 481.69,313.53 498.73,319.18 C522.57,327.08 544.69,347.96 554.02,371.36 C560.95,388.75 560.50,375.52 560.50,560.50 L 560.50 727.50 L 558.17 736.00 C549.71,766.81 530.72,788.78 502.67,800.20 C489.19,805.70 472.21,807.78 455.50,805.99 ZM 464.50 252.33 C429.92,250.23 397.29,231.42 378.36,202.69 C353.79,165.39 352.77,118.82 375.70,80.74 C391.15,55.06 415.00,37.63 444.65,30.34 C459.16,26.77 479.00,26.53 492.07,29.76 C533.46,39.98 563.42,70.17 573.96,112.27 C577.55,126.64 578.44,137.88 577.01,150.89 C574.23,176.13 563.37,199.97 546.50,217.85 C529.35,236.03 506.10,247.90 480.52,251.54 C475.01,252.32 470.27,252.89 470.00,252.80 C469.73,252.71 467.25,252.50 464.50,252.33 Z" fill="rgb(253,253,253)"/>
</g>
</svg>